<svg xmlns="http://www.w3.org/2000/svg" width="1176" height="1186" viewBox="0 0 1176 1186">
    <defs>
        <linearGradient id="a" x1="49.998%" x2="49.998%" y1="-113.004%" y2="164.616%">
            <stop offset="0%" stop-color="#37B669"/>
            <stop offset="23.23%" stop-color="#36B064"/>
            <stop offset="47.3%" stop-color="#2FA35B"/>
            <stop offset="71.76%" stop-color="#24914D"/>
            <stop offset="96.34%" stop-color="#107B3E"/>
            <stop offset="100%" stop-color="#0B773C"/>
        </linearGradient>
        <linearGradient id="b" x1="50%" x2="50%" y1="-225.655%" y2="328.718%">
            <stop offset="0%" stop-color="#37B669"/>
            <stop offset="23.23%" stop-color="#36B064"/>
            <stop offset="47.3%" stop-color="#2FA35B"/>
            <stop offset="71.76%" stop-color="#24914D"/>
            <stop offset="96.34%" stop-color="#107B3E"/>
            <stop offset="100%" stop-color="#0B773C"/>
        </linearGradient>
        <linearGradient id="c" x1="50.001%" x2="50.001%" y1="-614.002%" y2="179.389%">
            <stop offset="0%" stop-color="#37B669"/>
            <stop offset="23.23%" stop-color="#36B064"/>
            <stop offset="47.3%" stop-color="#2FA35B"/>
            <stop offset="71.76%" stop-color="#24914D"/>
            <stop offset="96.34%" stop-color="#107B3E"/>
            <stop offset="100%" stop-color="#0B773C"/>
        </linearGradient>
        <linearGradient id="d" x1="50%" x2="50%" y1="-611.424%" y2="178.512%">
            <stop offset="0%" stop-color="#37B669"/>
            <stop offset="23.23%" stop-color="#36B064"/>
            <stop offset="47.3%" stop-color="#2FA35B"/>
            <stop offset="71.76%" stop-color="#24914D"/>
            <stop offset="96.34%" stop-color="#107B3E"/>
            <stop offset="100%" stop-color="#0B773C"/>
        </linearGradient>
        <linearGradient id="e" x1="49.999%" x2="49.999%" y1="-147.149%" y2="148.714%">
            <stop offset="0%" stop-color="#37B669"/>
            <stop offset="23.23%" stop-color="#36B064"/>
            <stop offset="47.3%" stop-color="#2FA35B"/>
            <stop offset="71.76%" stop-color="#24914D"/>
            <stop offset="96.34%" stop-color="#107B3E"/>
            <stop offset="100%" stop-color="#0B773C"/>
        </linearGradient>
        <linearGradient id="f" x1="50.002%" x2="50.002%" y1="-225.656%" y2="328.721%">
            <stop offset="0%" stop-color="#37B669"/>
            <stop offset="23.23%" stop-color="#36B064"/>
            <stop offset="47.3%" stop-color="#2FA35B"/>
            <stop offset="71.76%" stop-color="#24914D"/>
            <stop offset="96.34%" stop-color="#107B3E"/>
            <stop offset="100%" stop-color="#0B773C"/>
        </linearGradient>
        <linearGradient id="g" x1="49.999%" x2="49.999%" y1="-613.994%" y2="179.386%">
            <stop offset="0%" stop-color="#37B669"/>
            <stop offset="23.23%" stop-color="#36B064"/>
            <stop offset="47.3%" stop-color="#2FA35B"/>
            <stop offset="71.76%" stop-color="#24914D"/>
            <stop offset="96.34%" stop-color="#107B3E"/>
            <stop offset="100%" stop-color="#0B773C"/>
        </linearGradient>
        <linearGradient id="h" x1="50%" x2="50%" y1="-611.419%" y2="178.508%">
            <stop offset="0%" stop-color="#37B669"/>
            <stop offset="23.23%" stop-color="#36B064"/>
            <stop offset="47.3%" stop-color="#2FA35B"/>
            <stop offset="71.76%" stop-color="#24914D"/>
            <stop offset="96.34%" stop-color="#107B3E"/>
            <stop offset="100%" stop-color="#0B773C"/>
        </linearGradient>
        <linearGradient id="i" x1="49.998%" x2="49.998%" y1="-113.001%" y2="164.615%">
            <stop offset="0%" stop-color="#37B669"/>
            <stop offset="23.23%" stop-color="#36B064"/>
            <stop offset="47.3%" stop-color="#2FA35B"/>
            <stop offset="71.76%" stop-color="#24914D"/>
            <stop offset="96.34%" stop-color="#107B3E"/>
            <stop offset="100%" stop-color="#0B773C"/>
        </linearGradient>
        <linearGradient id="j" x1="50.001%" x2="50.001%" y1="-147.149%" y2="148.715%">
            <stop offset="0%" stop-color="#37B669"/>
            <stop offset="23.23%" stop-color="#36B064"/>
            <stop offset="47.3%" stop-color="#2FA35B"/>
            <stop offset="71.76%" stop-color="#24914D"/>
            <stop offset="96.34%" stop-color="#107B3E"/>
            <stop offset="100%" stop-color="#0B773C"/>
        </linearGradient>
        <linearGradient id="k" x1="50%" x2="50%" y1="-225.659%" y2="328.723%">
            <stop offset="0%" stop-color="#37B669"/>
            <stop offset="23.23%" stop-color="#36B064"/>
            <stop offset="47.3%" stop-color="#2FA35B"/>
            <stop offset="71.76%" stop-color="#24914D"/>
            <stop offset="96.34%" stop-color="#107B3E"/>
            <stop offset="100%" stop-color="#0B773C"/>
        </linearGradient>
        <linearGradient id="l" x1="50%" x2="50%" y1="-611.428%" y2="178.511%">
            <stop offset="0%" stop-color="#37B669"/>
            <stop offset="23.23%" stop-color="#36B064"/>
            <stop offset="47.3%" stop-color="#2FA35B"/>
            <stop offset="71.76%" stop-color="#24914D"/>
            <stop offset="96.34%" stop-color="#107B3E"/>
            <stop offset="100%" stop-color="#0B773C"/>
        </linearGradient>
        <linearGradient id="m" x1="50%" x2="50%" y1="-147.147%" y2="148.714%">
            <stop offset="0%" stop-color="#37B669"/>
            <stop offset="23.23%" stop-color="#36B064"/>
            <stop offset="47.3%" stop-color="#2FA35B"/>
            <stop offset="71.76%" stop-color="#24914D"/>
            <stop offset="96.34%" stop-color="#107B3E"/>
            <stop offset="100%" stop-color="#0B773C"/>
        </linearGradient>
        <linearGradient id="n" x1="50%" x2="50%" y1="-147.147%" y2="148.714%">
            <stop offset="0%" stop-color="#37B669"/>
            <stop offset="23.23%" stop-color="#36B064"/>
            <stop offset="47.3%" stop-color="#2FA35B"/>
            <stop offset="71.76%" stop-color="#24914D"/>
            <stop offset="96.34%" stop-color="#107B3E"/>
            <stop offset="100%" stop-color="#0B773C"/>
        </linearGradient>
    </defs>
    <g fill="none" fill-rule="evenodd" opacity=".5">
        <path fill="url(#a)" fill-rule="nonzero" d="M549.206 437.238c-30.058 7.246-56.866 22.838-77.77 44.256l27.83 25.766-.084.11 5.49 5.1c-9.962 10.34-18.128 22.476-23.828 35.854l16.234 6.912c8.722-20.426 24.092-37.4 43.322-48.226v-19.816c-8.014 3.666-15.524 8.22-22.45 13.502l-20.524-18.992c17.404-13.824 38.012-23.73 60.574-28.384v25.208h.042v31.06H558v161.054c5.642 2.342 11.55 4.154 17.64 5.212V434.24c-8.014.614-18.714 1.548-26.434 2.998z"/>
        <path fill="url(#b)" fill-rule="nonzero" d="M671.632 551.864v.028c.588 1.116 1.06 2.202 1.562 3.344l16.248-6.912a204.283 204.283 0 0 0-1.812-3.986c-5.602-11.816-13.042-22.574-22.042-31.84l5.49-5.128-.056-.11 27.814-25.766a162.311 162.311 0 0 0-68.892-41.888v18.576a142.93 142.93 0 0 1 42.862 23.522l-20.428 18.992c-11.872-9.016-25.416-15.914-40.076-19.968V435.9c-6.006-.712-12.416-1.24-17.67-1.66v60.016a105.75 105.75 0 0 1 30.126 10.048c20.568 10.032 37.178 26.866 46.874 47.56z"/>
        <path fill="url(#c)" fill-rule="nonzero" d="M698.638 680.312c-2.118 2.98-4.402 5.852-6.826 8.666-18.284 20.958-42.418 36.538-69.954 44.202a105.42 105.42 0 0 1-27.228 6.132v16.324l17.67-2.168c36.788-6.716 69.226-25.834 92.804-52.896a147.412 147.412 0 0 0 9.448-11.956l-15.914-8.304z"/>
        <path fill="url(#d)" fill-rule="nonzero" d="M557.998 753.468l17.64 2.438v-16.594a106.038 106.038 0 0 1-27.242-6.132c-27.506-7.664-51.684-23.244-69.952-44.202-2.396-2.814-4.64-5.686-6.84-8.584l-15.914 8.222c2.998 4.124 6.118 8.11 9.434 11.956 23.604 27.062 56.044 46.18 92.874 52.896z"/>
        <path fill="url(#e)" fill-rule="nonzero" d="M716.14 649.684l-25.192-13.042c5.072-13.098 7.858-27.34 7.858-42.22 0-2.898-.168-5.77-.388-8.64l28.176-4.32 17.834-2.792-2.996-17.368-.066.01a160.67 160.67 0 0 0-30.91-66.496l-12.958 11.998c12.734 16.596 21.848 36.022 26.42 57.228l-86.312 13.266v60.784h17.614v-45.678l25.696-3.93c.17 1.978.224 3.93.224 5.938 0 24.216-8.612 46.374-22.88 63.736-11.958 14.464-27.87 25.472-45.958 31.462V517.904a88.084 88.084 0 0 0-17.67-5.644v209.272c6.048-.586 11.93-1.896 17.67-3.764v-9.698c23.632-6.524 44.368-20.234 59.53-38.656a119.01 119.01 0 0 0 11.594-16.804l1.224.64v-.028l39.378 20.4c12.85-22.852 20.374-49.19 20.734-77.142l-17.75 2.788c-.584 17.864-4.376 34.808-10.872 50.416z"/>
        <path fill="url(#f)" fill-rule="nonzero" d="M749.894 513.432v.054c1.128 2.148 2.04 4.238 3.004 6.438l31.296-13.308a390.235 390.235 0 0 0-3.492-7.676c-10.788-22.758-25.118-43.476-42.454-61.318l10.57-9.88-.11-.212 53.572-49.62a312.578 312.578 0 0 0-132.68-80.672v35.774c30.266 10.386 58.126 25.79 82.544 45.3L712.8 414.888c-22.858-17.362-48.944-30.646-77.178-38.454l.002-86.332c-11.57-1.372-23.912-2.39-34.032-3.198v115.584c19.94 3.436 39.51 9.904 58.016 19.352 39.622 19.324 71.604 51.742 90.286 91.592z" opacity=".15"/>
        <path fill="url(#g)" fill-rule="nonzero" d="M801.9 760.808c-4.078 5.74-8.476 11.266-13.146 16.688-35.21 40.364-81.688 70.364-134.722 85.126a202.8 202.8 0 0 1-52.434 11.812v31.44l34.032-4.176c70.842-12.936 133.318-49.754 178.726-101.872a284.205 284.205 0 0 0 18.194-23.022l-30.65-15.996z" opacity=".15"/>
        <path fill="url(#h)" fill-rule="nonzero" d="M531.046 901.698l33.974 4.694v-31.954a204.005 204.005 0 0 1-52.464-11.816c-52.974-14.762-99.538-44.762-134.72-85.126-4.614-5.422-8.932-10.946-13.174-16.532L334.016 776.8c5.772 7.944 11.782 15.622 18.166 23.026 45.46 52.118 107.936 88.936 178.864 101.872z" opacity=".15"/>
        <path fill="url(#i)" fill-rule="nonzero" d="M413.016 519.626c15.29-36.012 41.472-66.274 74.41-86.672 3.188-2.05 6.416-4.042 9.728-5.906v-38.162c-15.432 7.058-29.896 15.834-43.234 26.002l-39.526-36.576c33.514-26.626 73.208-45.704 116.656-54.666v48.546h.084v40.906a187.372 187.372 0 0 1 33.892-7.04V286.904c-15.432 1.184-36.04 2.976-50.908 5.77C456.23 306.63 404.6 336.66 364.34 377.908l53.598 49.62-.164.212 10.572 9.82c-19.184 19.914-34.912 43.29-45.886 69.052l30.556 13.014z" opacity=".15"/>
        <path fill="url(#j)" fill-rule="nonzero" d="M531.046 778.73c-1.156-.422-2.282-.96-3.438-1.338-1.848-.588-3.622-1.344-5.448-2.042-2.014-.638-3.998-1.444-5.958-2.304a188.04 188.04 0 0 1-6.976-3.056l.028-.11c-25.844-12.188-48.684-29.788-66.666-51.742-27.692-33.44-44.168-76.11-44.168-122.746 0-3.866.186-7.624.376-11.438l.958.146a192.057 192.057 0 0 1 4.56-33.65l-88.254-13.564c8.722-40.84 26.406-78.25 50.884-110.212l-24.958-23.108c-28.906 36.898-49.672 80.508-59.576 128.062l-.348-.054-5.584 33.47 34.456 5.388 54.102 8.322c-.4 5.528-.672 11.056-.67 16.636a224.65 224.65 0 0 0 15.19 81.31l-48.524 25.12c-12.554-30.054-19.88-62.69-21.01-97.09l-34.11-5.372c.698 53.832 15.058 104.558 39.828 148.566l76-39.288v.052l2.332-1.234c6.494 11.49 13.9 22.274 22.326 32.362 29.25 35.478 69.078 61.886 114.646 74.452v18.674c11.028 3.594 22.35 6.12 33.976 7.25v-53.458c-11.596-1.716-22.95-4.458-33.976-8.108v.104h.002z" opacity=".15"/>
        <path fill="url(#k)" fill-rule="nonzero" d="M906.324 433.908v.104c2.158 4.102 3.898 8.098 5.742 12.306l59.808-25.434c-2.156-4.926-4.414-9.802-6.672-14.67-20.616-43.494-48.002-83.088-81.132-117.186l20.204-18.88-.21-.406 102.38-94.832C937.208 103.978 850.212 50.332 752.882 20.736v68.372c57.842 19.846 111.084 49.286 157.752 86.572l-75.192 69.9c-43.684-33.18-93.538-58.566-147.494-73.488l.004-164.99c-22.114-2.618-45.702-4.566-65.04-6.108v220.894c38.112 6.564 75.506 18.924 110.876 36.98 75.714 36.928 136.834 98.882 172.536 175.04z" opacity=".05"/>
        <path fill="url(#l)" fill-rule="nonzero" d="M488.082 1175.924l64.932 8.97v-61.066c-34.618-3.098-68.268-10.78-100.266-22.584-101.24-28.206-190.226-85.544-257.466-162.68-8.816-10.364-17.07-20.92-25.174-31.596l-58.57 30.266c11.028 15.178 22.516 29.854 34.716 44.004 86.88 99.602 206.276 169.964 341.828 194.686z" opacity=".05"/>
        <path fill="url(#m)" fill-rule="nonzero" d="M1110.148 608.386c-2.156 65.748-16.106 128.112-40.02 185.558L977.42 745.93c18.66-48.206 28.908-100.624 28.908-155.39 0-10.67-.618-21.236-1.422-31.802l103.698-15.902 65.632-10.27-11.026-63.92-.238.036c-18.884-90.886-58.474-174.224-113.764-244.742l-47.692 44.164c46.868 61.082 80.408 132.576 97.238 210.628l-160.758 24.712c7.654 29.188 11.744 59.826 11.744 91.418 0 164.596-110.626 303.354-261.584 345.988a8.47 8.47 0 0 1-.208.07v-.016c-20.964 5.908-42.71 9.938-65.04 11.954v105.522c22.26-2.156 43.906-6.982 65.04-13.858v-35.686c86.972-24.008 163.296-74.476 219.088-142.282a436.474 436.474 0 0 0 42.684-61.848l4.51 2.366v-.108l144.926 75.082c47.292-84.104 74.982-181.046 76.314-283.924l-65.322 10.264z" opacity=".05"/>
        <path fill="url(#n)" fill-rule="nonzero" d="M488.082 940.92c-2.206-.806-4.358-1.838-6.568-2.558-3.532-1.12-6.92-2.562-10.41-3.902-3.846-1.22-7.64-2.758-11.386-4.404a357.483 357.483 0 0 1-13.33-5.842l.052-.206c-49.392-23.292-93.04-56.93-127.404-98.886-52.924-63.906-84.414-145.456-84.414-234.58 0-7.386.358-14.57.718-21.858l1.832.278a366.651 366.651 0 0 1 8.714-64.31L77.224 478.73c16.666-78.048 50.462-149.544 97.244-210.626L126.77 223.94C71.528 294.458 31.84 377.8 12.914 468.682l-.664-.104-10.67 63.964 65.848 10.296 103.394 15.906c-.766 10.558-1.286 21.128-1.282 31.794-.002 54.776 10.36 107.188 29.032 155.39l-92.736 48.012c-23.994-57.442-37.994-119.804-40.154-185.552L.498 598.124C1.834 701 29.276 797.946 76.614 882.048l145.248-75.08v.1l4.456-2.36c12.41 21.96 26.564 42.572 42.668 61.848C324.886 934.36 401 984.83 488.084 1008.842v35.688c21.076 6.87 42.716 11.696 64.936 13.856V956.22c-22.162-3.28-43.86-8.52-64.936-15.494v.194h-.002z" opacity=".05"/>
    </g>
</svg>
